# xmcd
#
# Track frame offsets:
#       150
#       20165
#       38837
#       56002
#       71102
#       85200
#       102480
#       119387
#       136482
#       151712
#       164592
#       176340
#
# Disc length: 2633 seconds
#
# Revision: 0
# Processed by: cddbd v1.5.1PL2 Copyright (c) Steve Scherf et al.
# Submitted via: CD-DA_X-Tractor v0.24
#
DISCID=a40a470c
DTITLE=Chris Isaak - Always Got Tonight
DYEAR=2002
DGENRE=
TTITLE0=One Day
TTITLE1=Let Me Down Easy
TTITLE2=Worked It Out Wrong
TTITLE3=Courthouse
TTITLE4=Life Will Go On
TTITLE5=Always Got Tonight
TTITLE6=Cool Love
TTITLE7=Notice The Ring
TTITLE8=I See You Everywhere
TTITLE9=American Boy
TTITLE10=Somebody To Love
TTITLE11=Nothing To Say
EXTD=
EXTT0=
EXTT1=
EXTT2=
EXTT3=
EXTT4=
EXTT5=
EXTT6=
EXTT7=
EXTT8=
EXTT9=
EXTT10=
EXTT11=
PLAYORDER=
